Coordinates
version=1
nRows=13
nColumns=34
inDegrees=yes

Units are S.I. units (second, meters, Newtons, ...)
If the header above contains a line with 'inDegrees', this indicates whether rotational values are in degrees (yes) or radians (no).

endheader
time	pelvis_tilt	pelvis_list	pelvis_rotation	pelvis_tx	pelvis_ty	pelvis_tz	hip_flexion_r	hip_adduction_r	hip_rotation_r	knee_angle_r	ankle_angle_r	subtalar_angle_r	mtp_angle_r	hip_flexion_l	hip_adduction_l	hip_rotation_l	knee_angle_l	ankle_angle_l	subtalar_angle_l	mtp_angle_l	lumbar_extension	lumbar_bending	lumbar_rotation	arm_flex_r	arm_add_r	arm_rot_r	elbow_flex_r	pro_sup_r	arm_flex_l	arm_add_l	arm_rot_l	elbow_flex_l	pro_sup_l
      0.00000000	     -2.94257170	      1.22416808	    -61.05463866	      0.12270914	      0.99017179	     -0.08159332	     -1.27322693	      2.52336473	     -2.55544411	      9.21946703	      9.85225742	     -1.60778273	      0.00000000	     -1.72231911	     -1.87817247	     -1.21145706	      8.48811481	      9.78207035	     -4.28363740	      0.00000000	     -2.10524812	     -1.37992197	     -7.22588614	    -52.92440912	    -77.04675692	    -86.09774760	     84.98293780	    119.74809749	    102.14013081	   -119.55106828	     63.21747771	     47.19769383	    102.84117686
      0.01666670	     -2.80575562	      1.84635791	    -61.69089872	      0.12226813	      0.98928729	     -0.07941026	     -0.37514813	      1.99295660	     -2.67101734	     10.09727602	     10.77742162	     -0.90983782	      0.00000000	     -1.27398615	     -1.81055960	     -5.82479639	      8.76816286	     11.54138022	      1.56294661	      0.00000000	     -1.23520969	     -1.85900037	     -4.82817808	    -61.84844047	    -74.07427868	    -93.72801324	     86.91773683	    115.67342489	    103.35006407	   -116.28552858	     63.30466831	     45.65485206	    108.24995118
      0.03333330	     -2.57351303	      1.34428648	    -62.01040731	      0.12219926	      0.99049040	     -0.08040268	     -0.92167935	      2.00673470	     -2.00404399	     10.04947958	     10.42991569	     -1.22955417	      0.00000000	     -2.24532837	     -1.57260390	     -4.18378843	      7.96883136	     10.26058244	     -1.16291573	      0.00000000	     -1.91422034	     -1.73323829	     -4.15180260	    -62.91514895	    -74.16758077	    -94.78378080	     85.90070442	    115.16847150	    105.30542434	   -115.34497723	     63.39137563	     45.44139811	    109.86010417
      0.05000000	     -2.73608203	      1.34160553	    -62.10943858	      0.12234149	      0.99042034	     -0.08027840	     -0.97521519	      2.14520639	     -2.11582809	      9.77685918	     10.22129746	     -1.00009965	      0.00000000	     -2.32874568	     -1.69830750	     -4.26442231	      7.67319888	     10.28412700	     -1.17172250	      0.00000000	     -1.63259878	     -1.48517591	     -4.08974009	    -63.12521103	    -74.93089663	    -94.69934950	     84.93690719	    115.16282944	    105.21119906	   -114.84977375	     63.69041396	     44.22957451	    110.13681421
      0.06666670	     -2.75645333	      1.28895938	    -62.14753782	      0.12255593	      0.99062775	     -0.08039446	     -1.11272471	      2.16585512	     -2.30057778	      9.55136954	     10.15575234	     -0.97931194	      0.00000000	     -2.41162091	     -1.71831199	     -4.35374232	      7.60297039	     10.26880761	     -1.22088346	      0.00000000	     -1.52548332	     -1.49020711	     -3.85264897	    -63.37945601	    -75.38200582	    -94.41784443	     83.31918359	    115.18195108	    105.21327314	   -114.13088560	     63.84104859	     43.63805322	    110.26806017
      0.08333330	     -2.79335069	      1.08614869	    -62.35210782	      0.12302731	      0.99092306	     -0.08037217	     -1.41372900	      2.23818715	     -2.24470408	      9.29130429	      9.97269320	     -0.57158106	      0.00000000	     -2.89629123	     -1.77256483	     -4.52975305	      7.08950164	     10.19217806	     -1.17813125	      0.00000000	     -1.42899684	     -1.21841239	     -3.86808041	    -63.60234713	    -77.01485367	    -94.13994181	     80.84589686	    115.30169992	    105.26378975	   -113.34475706	     63.90657927	     41.47906806	    110.62586171
      0.10000000	     -2.82144093	      0.93122018	    -62.48756761	      0.12368542	      0.99110734	     -0.08056774	     -1.78613797	      2.27973195	     -2.30185359	      8.82228587	      9.85792360	     -0.16686268	      0.00000000	     -3.38314534	     -1.78216608	     -4.71109045	      6.44099746	     10.05717943	     -1.03486798	      0.00000000	     -1.41528419	     -0.98567622	     -3.77011040	    -63.33169187	    -78.17192800	    -94.02139024	     78.49674251	    115.48646258	    105.27378313	   -112.82104812	     64.19695321	     40.18799873	    111.14146851
      0.11666670	     -2.89096500	      0.91186129	    -62.42478034	      0.12425539	      0.99117168	     -0.08079960	     -1.89362817	      2.32185685	     -2.46609181	      8.58925842	      9.76899876	     -0.10925694	      0.00000000	     -3.44907525	     -1.81358533	     -4.71394693	      6.25505138	      9.90933952	     -0.92096496	      0.00000000	     -1.32760175	     -0.94351812	     -3.46233320	    -63.14519608	    -78.34466440	    -94.06306625	     76.52498325	    115.51688701	    105.22701740	   -112.15766720	     64.39067898	     40.04773468	    111.30029327
      0.13333330	     -2.91530268	      0.66191399	    -62.59796500	      0.12498978	      0.99148393	     -0.08075335	     -2.25282925	      2.38515444	     -2.42869695	      8.35360241	      9.67296499	      0.36399215	      0.00000000	     -3.93515315	     -1.86701626	     -4.83784050	      5.87456907	      9.90074714	     -0.87737141	      0.00000000	     -1.37702172	     -0.66969207	     -3.32139496	    -62.83338458	    -79.45497335	    -93.63195131	     74.08990447	    115.83010401	    105.57658324	   -111.58644182	     64.75995368	     38.70502983	    111.88439081
      0.15000000	     -2.95750847	      0.68494359	    -62.49755148	      0.12569459	      0.99138112	     -0.08077640	     -2.33407606	      2.38249831	     -2.54132880	      8.17259640	      9.67717539	      0.41311621	      0.00000000	     -3.99034026	     -1.86484914	     -4.71934316	      5.69450847	      9.85724257	     -0.72360344	      0.00000000	     -1.27042562	     -0.68072978	     -3.03682184	    -62.52884485	    -79.40848948	    -93.77822577	     72.31381812	    115.89822366	    105.61759166	   -111.08881666	     64.89489461	     38.79995302	    112.07029511
      0.16666670	     -3.01735304	      0.72412709	    -62.36240777	      0.12630342	      0.99129937	     -0.08123111	     -2.34413564	      2.38024268	     -2.62730605	      8.02506589	      9.62943133	      0.48265975	      0.00000000	     -3.99628371	     -1.84931525	     -4.73534974	      5.47774845	      9.77258692	     -0.64208137	      0.00000000	     -1.24984311	     -0.65214258	     -2.88946745	    -62.20212937	    -79.45848377	    -94.02381768	     70.62754267	    115.95053486	    105.70703241	   -110.67907976	     64.98846659	     38.65891361	    112.21678932
      0.18333330	     -3.05518082	      0.74483042	    -62.29516599	      0.12661744	      0.99132228	     -0.08173313	     -2.36264637	      2.37540928	     -2.68416468	      7.86442705	      9.59648039	      0.58501512	      0.00000000	     -4.01346329	     -1.84787336	     -4.63414278	      5.30163631	      9.72069304	     -0.50614867	      0.00000000	     -1.30181781	     -0.64964122	     -2.67212460	    -62.01164300	    -79.49869789	    -94.03584204	     68.90311603	    116.03090174	    105.91465300	   -110.25378826	     65.24638478	     38.43653591	    112.38629793
      0.20000000	     -3.07738184	      0.71378323	    -62.33324392	      0.12752842	      0.99131957	     -0.08149417	     -2.46876294	      2.34727870	     -2.77703028	      7.77219942	      9.56672870	      0.76092943	      0.00000000	     -4.18518126	     -1.82279963	     -4.61236910	      5.10569382	      9.66287069	     -0.39343164	      0.00000000	     -1.25191573	     -0.52301922	     -2.56511640	    -61.68846731	    -79.86032148	    -94.20376290	     67.13082014	    116.25594466	    106.31982491	   -110.10623169	     65.31064370	     37.95024049	    112.70637469
